<svg width="10336" height="11387" viewBox="0 0 10336 11387" fill="none" xmlns="http://www.w3.org/2000/svg">
<path d="M6350.23 4684.94H5542.58V2803.04C5542.58 2363.93 5304.73 2275.06 5014.6 2604.39L4805.5 2842.25L3035.99 4854.83C2792.91 5129.28 2894.85 5354.06 3260.77 5354.06H4068.42V7235.96C4068.42 7675.07 4306.27 7763.94 4596.4 7434.6L4805.5 7196.75L6575.01 5184.17C6818.09 4909.72 6716.15 4684.94 6350.23 4684.94Z" fill="white"/>
<path d="M3518.72 9757.8C3419.03 9696.02 3419.03 9550.98 3518.72 9489.2L5525.27 8245.75C5630.53 8180.52 5766.5 8256.23 5766.5 8380.05V10866.9C5766.5 10990.8 5630.53 11066.5 5525.27 11001.2L3518.72 9757.8Z" fill="white"/>
<path d="M1486.4 8648.6C1486.4 8759.61 1576.39 8849.61 1687.4 8849.61H2672V10336H1687.4L1676.49 10336C749.584 10330.1 0 9576.88 0 8648.6V7689H1486.4V8648.6Z" fill="white"/>
<rect x="2522" y="8850" width="479" height="1486" fill="white"/>
<path d="M5184.72 0.0253906C8031.24 9.03868 10336 2319.37 10336 5168C10336 8022.21 8022.21 10336 5168 10336H4763V8849.61H5168C7201.29 8849.61 8849.61 7201.29 8849.61 5168C8849.61 3134.71 7201.29 1486.4 5168 1486.4H1597.48C1536.13 1486.4 1486.4 1536.13 1486.4 1597.48V7091H0V1597.48C0.000138198 718.662 709.638 5.58876 1587.15 0.03125L1597.48 0H5168L5184.72 0.0253906Z" fill="white"/>
</svg>
