<svg width="10336" height="11387" viewBox="0 0 10336 11387" fill="none" xmlns="http://www.w3.org/2000/svg">
<path d="M3518.72 9757.8C3419.03 9696.02 3419.03 9550.98 3518.72 9489.2L5525.27 8245.75C5630.53 8180.52 5766.5 8256.23 5766.5 8380.05V10866.9C5766.5 10990.8 5630.53 11066.5 5525.27 11001.2L3518.72 9757.8Z" fill="white"/>
<path d="M1486.4 8648.6C1486.4 8759.61 1576.39 8849.61 1687.4 8849.61H2672V10336H1687.4L1676.49 10336C749.584 10330.1 0 9576.88 0 8648.6V7689H1486.4V8648.6Z" fill="white"/>
<rect x="2522" y="8850" width="479" height="1486" fill="white"/>
<path d="M5184.72 0.0253906C8031.24 9.03868 10336 2319.37 10336 5168C10336 8022.21 8022.21 10336 5168 10336H4763V8849.61H5168C7201.29 8849.61 8849.61 7201.29 8849.61 5168C8849.61 3134.71 7201.29 1486.4 5168 1486.4H1597.48C1536.13 1486.4 1486.4 1536.13 1486.4 1597.48V7091H0V1597.48C0.000138198 718.662 709.638 5.58876 1587.15 0.03125L1597.48 0H5168L5184.72 0.0253906Z" fill="white"/>
<path d="M2696.76 5867.39C2696.76 5763.47 2781 5679.23 2884.92 5679.23H2996.08C3100 5679.23 3184.25 5763.47 3184.25 5867.39C3184.25 5971.3 3100 6055.55 2996.08 6055.55H2884.92C2781 6055.55 2696.76 5971.3 2696.76 5867.39Z" fill="white"/>
<path d="M2156 4956.12C2156 4852.2 2240.24 4767.96 2344.16 4767.96H2605.86C2709.78 4767.96 2794.02 4852.2 2794.02 4956.12C2794.02 5060.04 2709.78 5144.28 2605.86 5144.28H2344.16C2240.24 5144.28 2156 5060.04 2156 4956.12Z" fill="white"/>
<path d="M5886.2 6473.02C6006.94 6404.39 6160.89 6404.39 6281.63 6473.02C6451.56 6569.62 6644.76 6621.56 6842.93 6621.86H7036.8C7142.05 6621.86 7227.38 6707.18 7227.38 6812.43C7227.38 6917.68 7142.05 7003 7036.8 7003H6841.18C6627.9 7002.64 6417.67 6957.33 6224 6870.69C6135.12 6830.93 6032.71 6830.93 5943.83 6870.69C5750.16 6957.33 5539.93 7002.64 5326.64 7003H5316.57C5103.28 7002.64 4893.05 6957.33 4699.38 6870.69C4610.5 6830.93 4508.09 6830.93 4419.21 6870.69C4225.55 6957.33 4015.32 7002.64 3802.03 7003H3606.41C3501.16 7003 3415.84 6917.68 3415.84 6812.43C3415.84 6707.18 3501.16 6621.86 3606.41 6621.86H3800.29C3998.45 6621.56 4191.65 6569.62 4361.58 6473.02C4482.32 6404.39 4636.27 6404.39 4757.01 6473.02C4926.95 6569.62 5120.14 6621.56 5318.31 6621.86H5324.9C5523.07 6621.56 5716.26 6569.62 5886.2 6473.02Z" fill="white"/>
<path fill-rule="evenodd" clip-rule="evenodd" d="M4668.34 3001C4818.62 3001 4940.45 3122.83 4940.45 3273.11V3300.61C4940.45 3450.89 5062.28 3572.71 5212.57 3572.71H5978.33C6010.66 3572.71 6042.45 3580.94 6070.72 3596.6C6098.99 3612.27 6122.81 3634.87 6139.94 3662.28L6718.65 4588.24C6768.37 4667.81 6855.58 4716.14 6949.4 4716.14H7638.64C7655.19 4716.13 7671.45 4720.43 7685.84 4728.61C7700.22 4736.79 7712.22 4748.58 7720.66 4762.81C7729.11 4777.04 7733.7 4793.23 7733.99 4809.77C7734.27 4826.32 7730.25 4842.65 7722.31 4857.17L7038.05 6111.45C6996.53 6187.56 6921.15 6241.9 6834.46 6240.88C6712.16 6239.45 6590.83 6214.43 6477.27 6166.74C6433.62 6148.41 6391.56 6126.92 6351.4 6102.5C6196.21 6008.15 5971.58 6008.11 5816.36 6102.42C5794.09 6115.95 5771.23 6128.58 5747.83 6140.28C5615.5 6206.44 5469.56 6240.83 5321.61 6240.71C5173.65 6240.83 5027.71 6206.44 4895.38 6140.28C4870.76 6127.97 4846.74 6114.63 4823.38 6100.29C4670.29 6006.38 4440.47 6000.27 4277.51 6075.78C4268.39 6080 4259.1 6084.22 4249.61 6088.46C4226.42 6098.83 4201.17 6103.18 4175.72 6104.39C4169.93 6104.83 4164.08 6105.05 4158.19 6105.05H4119.13C4109.6 6105.36 4099.68 6105.86 4089.46 6106.54C4077.21 6107.34 4063.63 6106.8 4049.04 6105.05H3455.2C3327.3 6105.05 3223.62 6001.36 3223.62 5873.47C3223.62 5749.48 3321.05 5648.26 3443.53 5642.18H4724.32C4852.22 5642.18 4955.9 5538.49 4955.9 5410.59C4955.9 5282.7 4852.22 5179.01 4724.32 5179.01H3098.56C2970.66 5179.01 2866.97 5075.33 2866.97 4947.43C2866.97 4819.54 2970.66 4715.85 3098.56 4715.85H3653.6C3733.61 4710.97 3796.99 4644.54 3796.99 4563.3V3763.29C3796.99 3712.74 3817.07 3664.27 3852.81 3628.53C3888.55 3592.79 3937.02 3572.71 3987.57 3572.71C4092.82 3572.71 4178.14 3487.39 4178.14 3382.14V3273.11C4178.14 3122.83 4299.97 3001 4450.26 3001H4668.34ZM4450.26 3953.86C4299.97 3953.86 4178.14 4075.68 4178.14 4225.96V4444.04C4178.14 4590.08 4293.2 4709.25 4437.61 4715.85H5115.7C5119.62 4715.85 5123.51 4715.95 5127.38 4716.14H5858.23C6071.96 4716.14 6202.26 4481.06 6088.99 4299.82L5952.69 4081.75C5902.96 4002.19 5815.76 3953.86 5721.94 3953.86H4450.26Z" fill="white"/>
</svg>
