<svg width="10336" height="11026" viewBox="0 0 10336 11026" fill="none" xmlns="http://www.w3.org/2000/svg">
<path d="M1486.4 8648.6C1486.4 8759.61 1576.39 8849.61 1687.4 8849.61H2672V10336H1687.4L1676.49 10336C749.584 10330.1 0 9576.88 0 8648.6V7689H1486.4V8648.6Z" fill="black"/>
<rect x="2522" y="8850" width="479" height="1486" fill="black"/>
<path d="M5184.72 0.0253906C8031.24 9.03868 10336 2319.37 10336 5168C10336 7819.78 8338.77 10005.1 5766.5 10301.7V10866.9C5766.5 10990.8 5630.53 11066.5 5525.27 11001.2L3518.73 9757.8C3419.03 9696.02 3419.03 9550.98 3518.72 9489.2L5525.27 8245.75C5630.53 8180.52 5766.5 8256.23 5766.5 8380.05V8801.2C7515.15 8515.32 8849.61 6997.5 8849.61 5168C8849.61 3134.71 7201.29 1486.4 5168 1486.4H1597.48C1536.13 1486.4 1486.4 1536.13 1486.4 1597.48V7091H0V1597.48C0.000138198 718.662 709.638 5.58876 1587.15 0.03125L1597.48 0H5168L5184.72 0.0253906Z" fill="black"/>
</svg>
